<?xml version="1.0" standalone="no"?>
<!DOCTYPE svg PUBLIC "-//W3C//DTD SVG 20010904//EN"
 "http://www.w3.org/TR/2001/REC-SVG-20010904/DTD/svg10.dtd">
<svg version="1.0" xmlns="http://www.w3.org/2000/svg"
 width="128.000000pt" height="128.000000pt" viewBox="0 0 128.000000 128.000000"
 preserveAspectRatio="xMidYMid meet">
<metadata>
Created by potrace 1.14, written by Peter Selinger 2001-2017
</metadata>
<g transform="translate(0.000000,128.000000) scale(0.100000,-0.100000)"
fill="#000000" stroke="none">
<path d="M560 1269 c-141 -16 -255 -73 -366 -184 -66 -65 -89 -96 -122 -165
-50 -106 -64 -168 -64 -280 0 -112 14 -174 64 -280 57 -120 168 -231 288 -288
106 -50 168 -64 280 -64 112 0 174 14 280 64 120 57 231 168 288 288 50 106
64 168 64 280 0 112 -14 174 -64 280 -57 120 -168 231 -288 288 -123 58 -232
77 -360 61z m285 -373 c125 -32 240 -87 248 -118 8 -28 -17 -68 -42 -68 -10 0
-47 13 -82 30 -114 53 -208 72 -380 77 -122 4 -175 2 -239 -11 -96 -20 -127
-16 -136 18 -13 54 13 68 186 100 14 3 97 3 185 1 132 -3 178 -8 260 -29z
m-57 -215 c40 -12 104 -37 142 -56 78 -39 96 -68 61 -96 -21 -17 -24 -17 -94
16 -117 56 -213 77 -357 78 -88 0 -144 -4 -189 -16 -60 -16 -65 -16 -83 -1
-39 37 -13 69 72 88 99 23 352 15 448 -13z m-53 -196 c71 -19 170 -62 186 -81
14 -17 2 -54 -18 -54 -8 0 -44 14 -79 31 -121 57 -283 74 -444 45 -81 -15
-103 -8 -98 28 3 21 27 30 126 46 80 12 255 5 327 -15z"/>
</g>
</svg>
